<?xml version="1.0" encoding="utf-8"?>
<!-- Generator: Adobe Illustrator 28.0.0, SVG Export Plug-In . SVG Version: 6.00 Build 0)  -->
<svg version="1.2" baseProfile="tiny" id="Layer_1" xmlns="http://www.w3.org/2000/svg" xmlns:xlink="http://www.w3.org/1999/xlink"
	 x="0px" y="0px" viewBox="0 0 113 48" overflow="visible" xml:space="preserve">
<g>
	<path fill="#FFFFFF" d="M58.4,7.5C37.5,5.7,8.9,6.2,7.5,17.5c-1,8,22,17,45.7,19.9C75,40,106.7,42.6,105.8,28
		C105.1,21,79.2,9.4,58.4,7.5z"/>
	<path fill="#FFFF00" d="M58.1,10.1c-13.1-1-27-1.3-39.5,2.7c-1.9,0.7-3.7,1.6-5,2.6c-1,0.8-1.7,1.6-1.7,2.6c0,0.1,0,0.1,0,0
		c0.1-0.2,0.1,0,0.3,0.2c1.5,1.8,3.9,3,6.3,4.1c3.7,1.7,7.8,3.1,11.9,4.2c16.8,4.4,34.9,6,52.1,6.9c4.8,0.1,18.2,0.4,18.8-4.9
		c-0.5-1.6-3.9-4.2-6.1-5.6c-3.6-2.3-7.5-4.4-11.6-6.1C75.6,13.4,66.9,11,58.1,10.1L58.1,10.1z M58.6,5c14.1,1.5,27.7,5.2,40.5,11.5
		c4.2,2.4,9.4,5,10.9,10.3c1,4.5-1.1,9.6-4.7,12.2c-6.8,5.1-14.7,5.7-22.6,6.3C63.6,45.9,45,44,26.9,37.8C18.7,34.6,1.8,28,3,17
		C5.6-0.7,45.6,4.2,58.6,5L58.6,5z"/>
</g>
</svg>
