<svg xmlns="http://www.w3.org/2000/svg" xml:space="preserve" viewBox="0 0 50 55.3">
    <path d="M31.1 25.8c-3-7-9.1-12.9-12-22.1-.2-.6-.8-.9-1.3-.7-.3.1-.6.4-.7.7C13.2 16.2 3.3 22.7 3.3 34c0 8.1 6.5 14.7 14.7 14.8 2.3 0 4.7-.5 6.7-1.6-.7-1.5-1-3.2-1-4.9 0-5 2.5-8.7 4.8-12.4.9-1.3 1.7-2.6 2.6-4.1M14.6 43.3c-3.8-1.4-6.4-5.1-6.4-9.2.1-2.7.8-5.4 2.1-7.8-.2 1-.3 2-.3 3.1 0 4.3 2.5 8.1 6.3 10 .7.4 1.2 1.1 1.2 1.9 0 1.2-1 2.2-2.2 2.2-.2-.1-.4-.1-.7-.2m11.2-1c0-7.6 6.6-12 9.3-20.4.1-.4.5-.6.9-.5.2.1.4.2.5.5 2.4 7.8 8.3 12.1 9.1 18.7.8 6.1-3.8 11.7-9.9 11.6-5.5 0-9.9-4.4-9.9-9.9"/>
</svg>
