<svg xmlns="http://www.w3.org/2000/svg" xml:space="preserve" viewBox="0 0 100 101"><path d="M62 46.7C56.5 33.9 45.4 23.1 40.1 6.4c-.3-1-1.4-1.6-2.4-1.3-.6.2-1.1.7-1.3 1.3C29.3 29.2 11.3 41 11.3 61.7c0 14.8 12 26.9 26.8 27 4.3 0 8.5-1 12.3-2.9-1.3-2.8-1.9-5.9-1.9-9 0-9.1 4.5-15.9 8.8-22.6 1.6-2.4 3.2-4.9 4.7-7.5M32 78.6c-7-2.6-11.7-9.4-11.7-16.9.1-5 1.4-9.9 3.9-14.3-.4 1.9-.6 3.7-.6 5.6 0 7.8 4.5 14.9 11.5 18.2 1.4.7 2.2 2 2.2 3.5 0 2.2-1.8 4-4 4-.4.1-.9.1-1.3-.1m20.5-1.7c0-13.9 12.1-21.8 16.9-37.2.2-.7.9-1.1 1.6-.9q.6.15.9.9c4.4 14.2 15.1 22 16.7 34.1C90 84.9 81.7 95.1 70.5 95c-10-.1-18-8.2-18-18.1"/></svg>